<svg width="720" height="520" viewBox="0 0 720 520" fill="none" xmlns="http://www.w3.org/2000/svg">
  <rect width="720" height="520" rx="36" fill="#F7FAFC"/>
  <circle cx="116" cy="110" r="74" fill="#DCEBFF"/>
  <circle cx="610" cy="398" r="82" fill="#E4F7E7"/>
  <rect x="132" y="92" width="456" height="312" rx="28" fill="white" stroke="#D8E3EE" stroke-width="10"/>
  <rect x="132" y="92" width="456" height="62" rx="28" fill="#2F4A78"/>
  <circle cx="174" cy="123" r="8" fill="#FF8787"/>
  <circle cx="202" cy="123" r="8" fill="#FFD43B"/>
  <circle cx="230" cy="123" r="8" fill="#69DB7C"/>
  <rect x="170" y="188" width="132" height="174" rx="22" fill="#EEF4FF"/>
  <path d="M194 326L222 286L248 306L280 248" stroke="#4C6EF5" stroke-width="12" stroke-linecap="round" stroke-linejoin="round"/>
  <circle cx="194" cy="326" r="8" fill="#4C6EF5"/>
  <circle cx="222" cy="286" r="8" fill="#4C6EF5"/>
  <circle cx="248" cy="306" r="8" fill="#4C6EF5"/>
  <circle cx="280" cy="248" r="8" fill="#4C6EF5"/>
  <rect x="332" y="188" width="216" height="18" rx="9" fill="#E9EEF5"/>
  <rect x="332" y="224" width="146" height="14" rx="7" fill="#DCEBFF"/>
  <rect x="332" y="256" width="188" height="14" rx="7" fill="#E9EEF5"/>
  <rect x="332" y="288" width="168" height="14" rx="7" fill="#DCEBFF"/>
  <rect x="332" y="320" width="128" height="14" rx="7" fill="#E9EEF5"/>
  <rect x="170" y="388" width="378" height="10" rx="5" fill="#E9EEF5"/>
  <rect x="170" y="388" width="248" height="10" rx="5" fill="#51CF66"/>
  <rect x="116" y="346" width="108" height="74" rx="20" fill="#253245"/>
  <path d="M116 385C116 363.461 132.461 347 154 347H186C207.539 347 224 363.461 224 385V420H116V385Z" fill="#33455F"/>
  <circle cx="534" cy="374" r="52" fill="#FFF4CC"/>
  <path d="M504 386C514 358 552 350 566 376C573 389 568 407 554 416C530 432 496 414 504 386Z" fill="#FFD43B"/>
  <path d="M512 392L528 372L544 384L564 356" stroke="#F08C00" stroke-width="10" stroke-linecap="round" stroke-linejoin="round"/>
</svg>
